<svg width="3187" height="117" viewBox="0 0 3187 117" fill="none" xmlns="http://www.w3.org/2000/svg">
<ellipse cx="16.5" cy="87.5" rx="16.5" ry="29.5" fill="#D9D9D9"/>
<ellipse cx="41" cy="86.5" rx="17" ry="29.5" fill="#D9D9D9"/>
<ellipse cx="67" cy="86.5" rx="17" ry="29.5" fill="#D9D9D9"/>
<ellipse cx="93" cy="86.5" rx="17" ry="29.5" fill="#D9D9D9"/>
<ellipse cx="118" cy="86.5" rx="17" ry="29.5" fill="#D9D9D9"/>
<ellipse cx="143" cy="86.5" rx="17" ry="29.5" fill="#D9D9D9"/>
<ellipse cx="168" cy="86.5" rx="17" ry="29.5" fill="#D9D9D9"/>
<ellipse cx="193" cy="86.5" rx="17" ry="29.5" fill="#D9D9D9"/>
<ellipse cx="218" cy="86.5" rx="17" ry="29.5" fill="#D9D9D9"/>
<ellipse cx="243" cy="86.5" rx="17" ry="29.5" fill="#D9D9D9"/>
<ellipse cx="268" cy="86.5" rx="17" ry="29.5" fill="#D9D9D9"/>
<ellipse cx="293" cy="86.5" rx="17" ry="29.5" fill="#D9D9D9"/>
<ellipse cx="318" cy="86.5" rx="17" ry="29.5" fill="#D9D9D9"/>
<ellipse cx="343" cy="86.5" rx="17" ry="29.5" fill="#D9D9D9"/>
<ellipse cx="368" cy="86.5" rx="17" ry="29.5" fill="#D9D9D9"/>
<ellipse cx="392" cy="86.5" rx="17" ry="29.5" fill="#D9D9D9"/>
<ellipse cx="416" cy="86.5" rx="17" ry="29.5" fill="#D9D9D9"/>
<ellipse cx="441" cy="86.5" rx="17" ry="29.5" fill="#D9D9D9"/>
<ellipse cx="467" cy="86.5" rx="17" ry="29.5" fill="#D9D9D9"/>
<ellipse cx="492" cy="86.5" rx="17" ry="29.5" fill="#D9D9D9"/>
<ellipse cx="517" cy="86.5" rx="17" ry="29.5" fill="#D9D9D9"/>
<ellipse cx="516.5" cy="86.5" rx="16.5" ry="29.5" fill="#D9D9D9"/>
<ellipse cx="541" cy="87.5" rx="17" ry="29.5" fill="#D9D9D9"/>
<ellipse cx="567" cy="87.5" rx="17" ry="29.5" fill="#D9D9D9"/>
<ellipse cx="593" cy="87.5" rx="17" ry="29.5" fill="#D9D9D9"/>
<ellipse cx="618" cy="87.5" rx="17" ry="29.5" fill="#D9D9D9"/>
<ellipse cx="643" cy="87.5" rx="17" ry="29.5" fill="#D9D9D9"/>
<ellipse cx="668" cy="87.5" rx="17" ry="29.5" fill="#D9D9D9"/>
<ellipse cx="693" cy="87.5" rx="17" ry="29.5" fill="#D9D9D9"/>
<ellipse cx="718" cy="87.5" rx="17" ry="29.5" fill="#D9D9D9"/>
<ellipse cx="743" cy="87.5" rx="17" ry="29.5" fill="#D9D9D9"/>
<ellipse cx="768" cy="87.5" rx="17" ry="29.5" fill="#D9D9D9"/>
<ellipse cx="793" cy="87.5" rx="17" ry="29.5" fill="#D9D9D9"/>
<ellipse cx="818" cy="87.5" rx="17" ry="29.5" fill="#D9D9D9"/>
<ellipse cx="843" cy="87.5" rx="17" ry="29.5" fill="#D9D9D9"/>
<ellipse cx="868" cy="87.5" rx="17" ry="29.5" fill="#D9D9D9"/>
<ellipse cx="892" cy="87.5" rx="17" ry="29.5" fill="#D9D9D9"/>
<ellipse cx="916" cy="87.5" rx="17" ry="29.5" fill="#D9D9D9"/>
<ellipse cx="941" cy="87.5" rx="17" ry="29.5" fill="#D9D9D9"/>
<ellipse cx="967" cy="87.5" rx="17" ry="29.5" fill="#D9D9D9"/>
<ellipse cx="992" cy="87.5" rx="17" ry="29.5" fill="#D9D9D9"/>
<ellipse cx="1017" cy="87.5" rx="17" ry="29.5" fill="#D9D9D9"/>
<rect x="6" y="49" width="1005" height="14" fill="#D9D9D9"/>
<rect width="1034" height="86" fill="#D9D9D9"/>
<ellipse cx="691.5" cy="87.5" rx="16.5" ry="29.5" fill="#D9D9D9"/>
<ellipse cx="716" cy="86.5" rx="17" ry="29.5" fill="#D9D9D9"/>
<ellipse cx="742" cy="86.5" rx="17" ry="29.5" fill="#D9D9D9"/>
<ellipse cx="768" cy="86.5" rx="17" ry="29.5" fill="#D9D9D9"/>
<ellipse cx="793" cy="86.5" rx="17" ry="29.5" fill="#D9D9D9"/>
<ellipse cx="818" cy="86.5" rx="17" ry="29.5" fill="#D9D9D9"/>
<ellipse cx="843" cy="86.5" rx="17" ry="29.5" fill="#D9D9D9"/>
<ellipse cx="868" cy="86.5" rx="17" ry="29.5" fill="#D9D9D9"/>
<ellipse cx="893" cy="86.5" rx="17" ry="29.5" fill="#D9D9D9"/>
<ellipse cx="918" cy="86.5" rx="17" ry="29.5" fill="#D9D9D9"/>
<ellipse cx="943" cy="86.5" rx="17" ry="29.5" fill="#D9D9D9"/>
<ellipse cx="968" cy="86.5" rx="17" ry="29.5" fill="#D9D9D9"/>
<ellipse cx="993" cy="86.5" rx="17" ry="29.5" fill="#D9D9D9"/>
<ellipse cx="1018" cy="86.5" rx="17" ry="29.5" fill="#D9D9D9"/>
<ellipse cx="1043" cy="86.5" rx="17" ry="29.5" fill="#D9D9D9"/>
<ellipse cx="1067" cy="86.5" rx="17" ry="29.5" fill="#D9D9D9"/>
<ellipse cx="1091" cy="86.5" rx="17" ry="29.5" fill="#D9D9D9"/>
<ellipse cx="1116" cy="86.5" rx="17" ry="29.5" fill="#D9D9D9"/>
<ellipse cx="1142" cy="86.5" rx="17" ry="29.5" fill="#D9D9D9"/>
<ellipse cx="1167" cy="86.5" rx="17" ry="29.5" fill="#D9D9D9"/>
<ellipse cx="1192" cy="86.5" rx="17" ry="29.5" fill="#D9D9D9"/>
<ellipse cx="1191.5" cy="86.5" rx="16.5" ry="29.5" fill="#D9D9D9"/>
<ellipse cx="1216" cy="87.5" rx="17" ry="29.5" fill="#D9D9D9"/>
<ellipse cx="1242" cy="87.5" rx="17" ry="29.5" fill="#D9D9D9"/>
<ellipse cx="1268" cy="87.5" rx="17" ry="29.5" fill="#D9D9D9"/>
<ellipse cx="1293" cy="87.5" rx="17" ry="29.5" fill="#D9D9D9"/>
<ellipse cx="1318" cy="87.5" rx="17" ry="29.5" fill="#D9D9D9"/>
<ellipse cx="1343" cy="87.5" rx="17" ry="29.5" fill="#D9D9D9"/>
<ellipse cx="1368" cy="87.5" rx="17" ry="29.5" fill="#D9D9D9"/>
<ellipse cx="1393" cy="87.5" rx="17" ry="29.5" fill="#D9D9D9"/>
<ellipse cx="1418" cy="87.5" rx="17" ry="29.5" fill="#D9D9D9"/>
<ellipse cx="1443" cy="87.5" rx="17" ry="29.5" fill="#D9D9D9"/>
<ellipse cx="1468" cy="87.5" rx="17" ry="29.5" fill="#D9D9D9"/>
<ellipse cx="1493" cy="87.5" rx="17" ry="29.5" fill="#D9D9D9"/>
<ellipse cx="1518" cy="87.5" rx="17" ry="29.5" fill="#D9D9D9"/>
<ellipse cx="1543" cy="87.5" rx="17" ry="29.5" fill="#D9D9D9"/>
<ellipse cx="1567" cy="87.5" rx="17" ry="29.5" fill="#D9D9D9"/>
<ellipse cx="1591" cy="87.5" rx="17" ry="29.5" fill="#D9D9D9"/>
<ellipse cx="1616" cy="87.5" rx="17" ry="29.5" fill="#D9D9D9"/>
<ellipse cx="1642" cy="87.5" rx="17" ry="29.5" fill="#D9D9D9"/>
<ellipse cx="1667" cy="87.5" rx="17" ry="29.5" fill="#D9D9D9"/>
<ellipse cx="1692" cy="87.5" rx="17" ry="29.5" fill="#D9D9D9"/>
<rect x="681" y="49" width="1005" height="14" fill="#D9D9D9"/>
<rect x="675" width="1034" height="86" fill="#D9D9D9"/>
<ellipse cx="17.5" cy="87.5" rx="16.5" ry="29.5" fill="#D9D9D9"/>
<ellipse cx="42" cy="86.5" rx="17" ry="29.5" fill="#D9D9D9"/>
<ellipse cx="68" cy="86.5" rx="17" ry="29.5" fill="#D9D9D9"/>
<ellipse cx="94" cy="86.5" rx="17" ry="29.5" fill="#D9D9D9"/>
<ellipse cx="119" cy="86.5" rx="17" ry="29.5" fill="#D9D9D9"/>
<ellipse cx="144" cy="86.5" rx="17" ry="29.5" fill="#D9D9D9"/>
<ellipse cx="169" cy="86.5" rx="17" ry="29.5" fill="#D9D9D9"/>
<ellipse cx="194" cy="86.5" rx="17" ry="29.5" fill="#D9D9D9"/>
<ellipse cx="219" cy="86.5" rx="17" ry="29.5" fill="#D9D9D9"/>
<ellipse cx="244" cy="86.5" rx="17" ry="29.5" fill="#D9D9D9"/>
<ellipse cx="269" cy="86.5" rx="17" ry="29.5" fill="#D9D9D9"/>
<ellipse cx="294" cy="86.5" rx="17" ry="29.5" fill="#D9D9D9"/>
<ellipse cx="319" cy="86.5" rx="17" ry="29.5" fill="#D9D9D9"/>
<ellipse cx="344" cy="86.5" rx="17" ry="29.5" fill="#D9D9D9"/>
<ellipse cx="369" cy="86.5" rx="17" ry="29.5" fill="#D9D9D9"/>
<ellipse cx="393" cy="86.5" rx="17" ry="29.5" fill="#D9D9D9"/>
<ellipse cx="417" cy="86.5" rx="17" ry="29.5" fill="#D9D9D9"/>
<ellipse cx="442" cy="86.5" rx="17" ry="29.5" fill="#D9D9D9"/>
<ellipse cx="468" cy="86.5" rx="17" ry="29.5" fill="#D9D9D9"/>
<ellipse cx="493" cy="86.5" rx="17" ry="29.5" fill="#D9D9D9"/>
<ellipse cx="518" cy="86.5" rx="17" ry="29.5" fill="#D9D9D9"/>
<ellipse cx="517.5" cy="86.5" rx="16.5" ry="29.5" fill="#D9D9D9"/>
<ellipse cx="542" cy="87.5" rx="17" ry="29.5" fill="#D9D9D9"/>
<ellipse cx="568" cy="87.5" rx="17" ry="29.5" fill="#D9D9D9"/>
<ellipse cx="594" cy="87.5" rx="17" ry="29.5" fill="#D9D9D9"/>
<ellipse cx="619" cy="87.5" rx="17" ry="29.5" fill="#D9D9D9"/>
<ellipse cx="644" cy="87.5" rx="17" ry="29.5" fill="#D9D9D9"/>
<ellipse cx="669" cy="87.5" rx="17" ry="29.5" fill="#D9D9D9"/>
<ellipse cx="694" cy="87.5" rx="17" ry="29.5" fill="#D9D9D9"/>
<ellipse cx="719" cy="87.5" rx="17" ry="29.5" fill="#D9D9D9"/>
<ellipse cx="744" cy="87.5" rx="17" ry="29.5" fill="#D9D9D9"/>
<ellipse cx="769" cy="87.5" rx="17" ry="29.5" fill="#D9D9D9"/>
<ellipse cx="794" cy="87.5" rx="17" ry="29.5" fill="#D9D9D9"/>
<ellipse cx="819" cy="87.5" rx="17" ry="29.5" fill="#D9D9D9"/>
<ellipse cx="844" cy="87.5" rx="17" ry="29.5" fill="#D9D9D9"/>
<ellipse cx="869" cy="87.5" rx="17" ry="29.5" fill="#D9D9D9"/>
<ellipse cx="893" cy="87.5" rx="17" ry="29.5" fill="#D9D9D9"/>
<ellipse cx="917" cy="87.5" rx="17" ry="29.5" fill="#D9D9D9"/>
<ellipse cx="942" cy="87.5" rx="17" ry="29.5" fill="#D9D9D9"/>
<ellipse cx="968" cy="87.5" rx="17" ry="29.5" fill="#D9D9D9"/>
<ellipse cx="993" cy="87.5" rx="17" ry="29.5" fill="#D9D9D9"/>
<ellipse cx="1018" cy="87.5" rx="17" ry="29.5" fill="#D9D9D9"/>
<rect x="7" y="49" width="1005" height="14" fill="#D9D9D9"/>
<rect x="1" width="1034" height="86" fill="#D9D9D9"/>
<ellipse cx="692.5" cy="87.5" rx="16.5" ry="29.5" fill="#D9D9D9"/>
<ellipse cx="717" cy="86.5" rx="17" ry="29.5" fill="#D9D9D9"/>
<ellipse cx="743" cy="86.5" rx="17" ry="29.5" fill="#D9D9D9"/>
<ellipse cx="769" cy="86.5" rx="17" ry="29.5" fill="#D9D9D9"/>
<ellipse cx="794" cy="86.5" rx="17" ry="29.5" fill="#D9D9D9"/>
<ellipse cx="819" cy="86.5" rx="17" ry="29.5" fill="#D9D9D9"/>
<ellipse cx="844" cy="86.5" rx="17" ry="29.5" fill="#D9D9D9"/>
<ellipse cx="869" cy="86.5" rx="17" ry="29.5" fill="#D9D9D9"/>
<ellipse cx="894" cy="86.5" rx="17" ry="29.5" fill="#D9D9D9"/>
<ellipse cx="919" cy="86.5" rx="17" ry="29.5" fill="#D9D9D9"/>
<ellipse cx="944" cy="86.5" rx="17" ry="29.5" fill="#D9D9D9"/>
<ellipse cx="969" cy="86.5" rx="17" ry="29.5" fill="#D9D9D9"/>
<ellipse cx="994" cy="86.5" rx="17" ry="29.5" fill="#D9D9D9"/>
<ellipse cx="1019" cy="86.5" rx="17" ry="29.5" fill="#D9D9D9"/>
<ellipse cx="1044" cy="86.5" rx="17" ry="29.5" fill="#D9D9D9"/>
<ellipse cx="1068" cy="86.5" rx="17" ry="29.5" fill="#D9D9D9"/>
<ellipse cx="1092" cy="86.5" rx="17" ry="29.5" fill="#D9D9D9"/>
<ellipse cx="1117" cy="86.5" rx="17" ry="29.5" fill="#D9D9D9"/>
<ellipse cx="1143" cy="86.5" rx="17" ry="29.5" fill="#D9D9D9"/>
<ellipse cx="1168" cy="86.5" rx="17" ry="29.5" fill="#D9D9D9"/>
<ellipse cx="1193" cy="86.5" rx="17" ry="29.5" fill="#D9D9D9"/>
<ellipse cx="1192.5" cy="86.5" rx="16.5" ry="29.5" fill="#D9D9D9"/>
<ellipse cx="1217" cy="87.5" rx="17" ry="29.5" fill="#D9D9D9"/>
<ellipse cx="1243" cy="87.5" rx="17" ry="29.5" fill="#D9D9D9"/>
<ellipse cx="1269" cy="87.5" rx="17" ry="29.5" fill="#D9D9D9"/>
<ellipse cx="1294" cy="87.5" rx="17" ry="29.5" fill="#D9D9D9"/>
<ellipse cx="1319" cy="87.5" rx="17" ry="29.5" fill="#D9D9D9"/>
<ellipse cx="1344" cy="87.5" rx="17" ry="29.5" fill="#D9D9D9"/>
<ellipse cx="1369" cy="87.5" rx="17" ry="29.5" fill="#D9D9D9"/>
<ellipse cx="1394" cy="87.5" rx="17" ry="29.5" fill="#D9D9D9"/>
<ellipse cx="1419" cy="87.5" rx="17" ry="29.5" fill="#D9D9D9"/>
<ellipse cx="1444" cy="87.5" rx="17" ry="29.5" fill="#D9D9D9"/>
<ellipse cx="1469" cy="87.5" rx="17" ry="29.5" fill="#D9D9D9"/>
<ellipse cx="1494" cy="87.5" rx="17" ry="29.5" fill="#D9D9D9"/>
<ellipse cx="1519" cy="87.5" rx="17" ry="29.5" fill="#D9D9D9"/>
<ellipse cx="1544" cy="87.5" rx="17" ry="29.5" fill="#D9D9D9"/>
<ellipse cx="1568" cy="87.5" rx="17" ry="29.5" fill="#D9D9D9"/>
<ellipse cx="1592" cy="87.5" rx="17" ry="29.5" fill="#D9D9D9"/>
<ellipse cx="1617" cy="87.5" rx="17" ry="29.5" fill="#D9D9D9"/>
<ellipse cx="1643" cy="87.5" rx="17" ry="29.5" fill="#D9D9D9"/>
<ellipse cx="1668" cy="87.5" rx="17" ry="29.5" fill="#D9D9D9"/>
<ellipse cx="1693" cy="87.5" rx="17" ry="29.5" fill="#D9D9D9"/>
<rect x="682" y="49" width="1005" height="14" fill="#D9D9D9"/>
<rect x="676" width="1034" height="86" fill="#D9D9D9"/>
<ellipse cx="1493.5" cy="87.5" rx="16.5" ry="29.5" fill="#D9D9D9"/>
<ellipse cx="1518" cy="86.5" rx="17" ry="29.5" fill="#D9D9D9"/>
<ellipse cx="1544" cy="86.5" rx="17" ry="29.5" fill="#D9D9D9"/>
<ellipse cx="1570" cy="86.5" rx="17" ry="29.5" fill="#D9D9D9"/>
<ellipse cx="1595" cy="86.5" rx="17" ry="29.5" fill="#D9D9D9"/>
<ellipse cx="1620" cy="86.5" rx="17" ry="29.5" fill="#D9D9D9"/>
<ellipse cx="1645" cy="86.5" rx="17" ry="29.5" fill="#D9D9D9"/>
<ellipse cx="1670" cy="86.5" rx="17" ry="29.5" fill="#D9D9D9"/>
<ellipse cx="1695" cy="86.5" rx="17" ry="29.5" fill="#D9D9D9"/>
<ellipse cx="1720" cy="86.5" rx="17" ry="29.5" fill="#D9D9D9"/>
<ellipse cx="1745" cy="86.5" rx="17" ry="29.5" fill="#D9D9D9"/>
<ellipse cx="1770" cy="86.5" rx="17" ry="29.5" fill="#D9D9D9"/>
<ellipse cx="1795" cy="86.5" rx="17" ry="29.5" fill="#D9D9D9"/>
<ellipse cx="1820" cy="86.5" rx="17" ry="29.5" fill="#D9D9D9"/>
<ellipse cx="1845" cy="86.5" rx="17" ry="29.5" fill="#D9D9D9"/>
<ellipse cx="1869" cy="86.5" rx="17" ry="29.5" fill="#D9D9D9"/>
<ellipse cx="1893" cy="86.5" rx="17" ry="29.5" fill="#D9D9D9"/>
<ellipse cx="1918" cy="86.5" rx="17" ry="29.5" fill="#D9D9D9"/>
<ellipse cx="1944" cy="86.5" rx="17" ry="29.5" fill="#D9D9D9"/>
<ellipse cx="1969" cy="86.5" rx="17" ry="29.5" fill="#D9D9D9"/>
<ellipse cx="1994" cy="86.5" rx="17" ry="29.5" fill="#D9D9D9"/>
<ellipse cx="1993.5" cy="86.5" rx="16.5" ry="29.5" fill="#D9D9D9"/>
<ellipse cx="2018" cy="87.5" rx="17" ry="29.5" fill="#D9D9D9"/>
<ellipse cx="2044" cy="87.5" rx="17" ry="29.5" fill="#D9D9D9"/>
<ellipse cx="2070" cy="87.5" rx="17" ry="29.5" fill="#D9D9D9"/>
<ellipse cx="2095" cy="87.5" rx="17" ry="29.5" fill="#D9D9D9"/>
<ellipse cx="2120" cy="87.5" rx="17" ry="29.5" fill="#D9D9D9"/>
<ellipse cx="2145" cy="87.5" rx="17" ry="29.5" fill="#D9D9D9"/>
<ellipse cx="2170" cy="87.5" rx="17" ry="29.5" fill="#D9D9D9"/>
<ellipse cx="2195" cy="87.5" rx="17" ry="29.5" fill="#D9D9D9"/>
<ellipse cx="2220" cy="87.5" rx="17" ry="29.5" fill="#D9D9D9"/>
<ellipse cx="2245" cy="87.5" rx="17" ry="29.5" fill="#D9D9D9"/>
<ellipse cx="2270" cy="87.5" rx="17" ry="29.5" fill="#D9D9D9"/>
<ellipse cx="2295" cy="87.5" rx="17" ry="29.5" fill="#D9D9D9"/>
<ellipse cx="2320" cy="87.5" rx="17" ry="29.5" fill="#D9D9D9"/>
<ellipse cx="2345" cy="87.5" rx="17" ry="29.5" fill="#D9D9D9"/>
<ellipse cx="2369" cy="87.5" rx="17" ry="29.5" fill="#D9D9D9"/>
<ellipse cx="2393" cy="87.5" rx="17" ry="29.5" fill="#D9D9D9"/>
<ellipse cx="2418" cy="87.5" rx="17" ry="29.5" fill="#D9D9D9"/>
<ellipse cx="2444" cy="87.5" rx="17" ry="29.5" fill="#D9D9D9"/>
<ellipse cx="2469" cy="87.5" rx="17" ry="29.5" fill="#D9D9D9"/>
<ellipse cx="2494" cy="87.5" rx="17" ry="29.5" fill="#D9D9D9"/>
<rect x="1483" y="49" width="1005" height="14" fill="#D9D9D9"/>
<rect x="1477" width="1034" height="86" fill="#D9D9D9"/>
<ellipse cx="2168.5" cy="87.5" rx="16.5" ry="29.5" fill="#D9D9D9"/>
<ellipse cx="2193" cy="86.5" rx="17" ry="29.5" fill="#D9D9D9"/>
<ellipse cx="2219" cy="86.5" rx="17" ry="29.5" fill="#D9D9D9"/>
<ellipse cx="2245" cy="86.5" rx="17" ry="29.5" fill="#D9D9D9"/>
<ellipse cx="2270" cy="86.5" rx="17" ry="29.5" fill="#D9D9D9"/>
<ellipse cx="2295" cy="86.5" rx="17" ry="29.5" fill="#D9D9D9"/>
<ellipse cx="2320" cy="86.5" rx="17" ry="29.5" fill="#D9D9D9"/>
<ellipse cx="2345" cy="86.5" rx="17" ry="29.5" fill="#D9D9D9"/>
<ellipse cx="2370" cy="86.5" rx="17" ry="29.5" fill="#D9D9D9"/>
<ellipse cx="2395" cy="86.5" rx="17" ry="29.5" fill="#D9D9D9"/>
<ellipse cx="2420" cy="86.5" rx="17" ry="29.5" fill="#D9D9D9"/>
<ellipse cx="2445" cy="86.5" rx="17" ry="29.5" fill="#D9D9D9"/>
<ellipse cx="2470" cy="86.5" rx="17" ry="29.5" fill="#D9D9D9"/>
<ellipse cx="2495" cy="86.5" rx="17" ry="29.5" fill="#D9D9D9"/>
<ellipse cx="2520" cy="86.5" rx="17" ry="29.5" fill="#D9D9D9"/>
<ellipse cx="2544" cy="86.5" rx="17" ry="29.5" fill="#D9D9D9"/>
<ellipse cx="2568" cy="86.5" rx="17" ry="29.5" fill="#D9D9D9"/>
<ellipse cx="2593" cy="86.5" rx="17" ry="29.5" fill="#D9D9D9"/>
<ellipse cx="2619" cy="86.5" rx="17" ry="29.5" fill="#D9D9D9"/>
<ellipse cx="2644" cy="86.5" rx="17" ry="29.5" fill="#D9D9D9"/>
<ellipse cx="2669" cy="86.5" rx="17" ry="29.5" fill="#D9D9D9"/>
<ellipse cx="2668.5" cy="86.5" rx="16.5" ry="29.5" fill="#D9D9D9"/>
<ellipse cx="2693" cy="87.5" rx="17" ry="29.5" fill="#D9D9D9"/>
<ellipse cx="2719" cy="87.5" rx="17" ry="29.5" fill="#D9D9D9"/>
<ellipse cx="2745" cy="87.5" rx="17" ry="29.5" fill="#D9D9D9"/>
<ellipse cx="2770" cy="87.5" rx="17" ry="29.5" fill="#D9D9D9"/>
<ellipse cx="2795" cy="87.5" rx="17" ry="29.5" fill="#D9D9D9"/>
<ellipse cx="2820" cy="87.5" rx="17" ry="29.5" fill="#D9D9D9"/>
<ellipse cx="2845" cy="87.5" rx="17" ry="29.5" fill="#D9D9D9"/>
<ellipse cx="2870" cy="87.5" rx="17" ry="29.5" fill="#D9D9D9"/>
<ellipse cx="2895" cy="87.5" rx="17" ry="29.5" fill="#D9D9D9"/>
<ellipse cx="2920" cy="87.5" rx="17" ry="29.5" fill="#D9D9D9"/>
<ellipse cx="2945" cy="87.5" rx="17" ry="29.5" fill="#D9D9D9"/>
<ellipse cx="2970" cy="87.5" rx="17" ry="29.5" fill="#D9D9D9"/>
<ellipse cx="2995" cy="87.5" rx="17" ry="29.5" fill="#D9D9D9"/>
<ellipse cx="3020" cy="87.5" rx="17" ry="29.5" fill="#D9D9D9"/>
<ellipse cx="3044" cy="87.5" rx="17" ry="29.5" fill="#D9D9D9"/>
<ellipse cx="3068" cy="87.5" rx="17" ry="29.5" fill="#D9D9D9"/>
<ellipse cx="3093" cy="87.5" rx="17" ry="29.5" fill="#D9D9D9"/>
<ellipse cx="3119" cy="87.5" rx="17" ry="29.5" fill="#D9D9D9"/>
<ellipse cx="3144" cy="87.5" rx="17" ry="29.5" fill="#D9D9D9"/>
<ellipse cx="3169" cy="87.5" rx="17" ry="29.5" fill="#D9D9D9"/>
<rect x="2158" y="49" width="1005" height="14" fill="#D9D9D9"/>
<rect x="2152" width="1034" height="86" fill="#D9D9D9"/>
<ellipse cx="1494.5" cy="87.5" rx="16.5" ry="29.5" fill="#D9D9D9"/>
<ellipse cx="1519" cy="86.5" rx="17" ry="29.5" fill="#D9D9D9"/>
<ellipse cx="1545" cy="86.5" rx="17" ry="29.5" fill="#D9D9D9"/>
<ellipse cx="1571" cy="86.5" rx="17" ry="29.5" fill="#D9D9D9"/>
<ellipse cx="1596" cy="86.5" rx="17" ry="29.5" fill="#D9D9D9"/>
<ellipse cx="1621" cy="86.5" rx="17" ry="29.5" fill="#D9D9D9"/>
<ellipse cx="1646" cy="86.5" rx="17" ry="29.5" fill="#D9D9D9"/>
<ellipse cx="1671" cy="86.5" rx="17" ry="29.5" fill="#D9D9D9"/>
<ellipse cx="1696" cy="86.5" rx="17" ry="29.5" fill="#D9D9D9"/>
<ellipse cx="1721" cy="86.5" rx="17" ry="29.5" fill="#D9D9D9"/>
<ellipse cx="1746" cy="86.5" rx="17" ry="29.5" fill="#D9D9D9"/>
<ellipse cx="1771" cy="86.5" rx="17" ry="29.5" fill="#D9D9D9"/>
<ellipse cx="1796" cy="86.5" rx="17" ry="29.5" fill="#D9D9D9"/>
<ellipse cx="1821" cy="86.5" rx="17" ry="29.5" fill="#D9D9D9"/>
<ellipse cx="1846" cy="86.5" rx="17" ry="29.5" fill="#D9D9D9"/>
<ellipse cx="1870" cy="86.5" rx="17" ry="29.5" fill="#D9D9D9"/>
<ellipse cx="1894" cy="86.5" rx="17" ry="29.5" fill="#D9D9D9"/>
<ellipse cx="1919" cy="86.5" rx="17" ry="29.5" fill="#D9D9D9"/>
<ellipse cx="1945" cy="86.5" rx="17" ry="29.5" fill="#D9D9D9"/>
<ellipse cx="1970" cy="86.5" rx="17" ry="29.5" fill="#D9D9D9"/>
<ellipse cx="1995" cy="86.5" rx="17" ry="29.5" fill="#D9D9D9"/>
<ellipse cx="1994.5" cy="86.5" rx="16.5" ry="29.5" fill="#D9D9D9"/>
<ellipse cx="2019" cy="87.5" rx="17" ry="29.5" fill="#D9D9D9"/>
<ellipse cx="2045" cy="87.5" rx="17" ry="29.5" fill="#D9D9D9"/>
<ellipse cx="2071" cy="87.5" rx="17" ry="29.5" fill="#D9D9D9"/>
<ellipse cx="2096" cy="87.5" rx="17" ry="29.5" fill="#D9D9D9"/>
<ellipse cx="2121" cy="87.5" rx="17" ry="29.5" fill="#D9D9D9"/>
<ellipse cx="2146" cy="87.5" rx="17" ry="29.5" fill="#D9D9D9"/>
<ellipse cx="2171" cy="87.5" rx="17" ry="29.5" fill="#D9D9D9"/>
<ellipse cx="2196" cy="87.5" rx="17" ry="29.5" fill="#D9D9D9"/>
<ellipse cx="2221" cy="87.5" rx="17" ry="29.5" fill="#D9D9D9"/>
<ellipse cx="2246" cy="87.5" rx="17" ry="29.5" fill="#D9D9D9"/>
<ellipse cx="2271" cy="87.5" rx="17" ry="29.5" fill="#D9D9D9"/>
<ellipse cx="2296" cy="87.5" rx="17" ry="29.5" fill="#D9D9D9"/>
<ellipse cx="2321" cy="87.5" rx="17" ry="29.5" fill="#D9D9D9"/>
<ellipse cx="2346" cy="87.5" rx="17" ry="29.5" fill="#D9D9D9"/>
<ellipse cx="2370" cy="87.5" rx="17" ry="29.5" fill="#D9D9D9"/>
<ellipse cx="2394" cy="87.5" rx="17" ry="29.5" fill="#D9D9D9"/>
<ellipse cx="2419" cy="87.5" rx="17" ry="29.5" fill="#D9D9D9"/>
<ellipse cx="2445" cy="87.5" rx="17" ry="29.5" fill="#D9D9D9"/>
<ellipse cx="2470" cy="87.5" rx="17" ry="29.5" fill="#D9D9D9"/>
<ellipse cx="2495" cy="87.5" rx="17" ry="29.5" fill="#D9D9D9"/>
<rect x="1484" y="49" width="1005" height="14" fill="#D9D9D9"/>
<rect x="1478" width="1034" height="86" fill="#D9D9D9"/>
<ellipse cx="2169.5" cy="87.5" rx="16.5" ry="29.5" fill="#D9D9D9"/>
<ellipse cx="2194" cy="86.5" rx="17" ry="29.5" fill="#D9D9D9"/>
<ellipse cx="2220" cy="86.5" rx="17" ry="29.5" fill="#D9D9D9"/>
<ellipse cx="2246" cy="86.5" rx="17" ry="29.5" fill="#D9D9D9"/>
<ellipse cx="2271" cy="86.5" rx="17" ry="29.5" fill="#D9D9D9"/>
<ellipse cx="2296" cy="86.5" rx="17" ry="29.5" fill="#D9D9D9"/>
<ellipse cx="2321" cy="86.5" rx="17" ry="29.5" fill="#D9D9D9"/>
<ellipse cx="2346" cy="86.5" rx="17" ry="29.5" fill="#D9D9D9"/>
<ellipse cx="2371" cy="86.5" rx="17" ry="29.5" fill="#D9D9D9"/>
<ellipse cx="2396" cy="86.5" rx="17" ry="29.5" fill="#D9D9D9"/>
<ellipse cx="2421" cy="86.5" rx="17" ry="29.5" fill="#D9D9D9"/>
<ellipse cx="2446" cy="86.5" rx="17" ry="29.5" fill="#D9D9D9"/>
<ellipse cx="2471" cy="86.5" rx="17" ry="29.5" fill="#D9D9D9"/>
<ellipse cx="2496" cy="86.5" rx="17" ry="29.5" fill="#D9D9D9"/>
<ellipse cx="2521" cy="86.5" rx="17" ry="29.5" fill="#D9D9D9"/>
<ellipse cx="2545" cy="86.5" rx="17" ry="29.5" fill="#D9D9D9"/>
<ellipse cx="2569" cy="86.5" rx="17" ry="29.5" fill="#D9D9D9"/>
<ellipse cx="2594" cy="86.5" rx="17" ry="29.5" fill="#D9D9D9"/>
<ellipse cx="2620" cy="86.5" rx="17" ry="29.5" fill="#D9D9D9"/>
<ellipse cx="2645" cy="86.5" rx="17" ry="29.5" fill="#D9D9D9"/>
<ellipse cx="2670" cy="86.5" rx="17" ry="29.5" fill="#D9D9D9"/>
<ellipse cx="2669.5" cy="86.5" rx="16.5" ry="29.5" fill="#D9D9D9"/>
<ellipse cx="2694" cy="87.5" rx="17" ry="29.5" fill="#D9D9D9"/>
<ellipse cx="2720" cy="87.5" rx="17" ry="29.5" fill="#D9D9D9"/>
<ellipse cx="2746" cy="87.5" rx="17" ry="29.5" fill="#D9D9D9"/>
<ellipse cx="2771" cy="87.5" rx="17" ry="29.5" fill="#D9D9D9"/>
<ellipse cx="2796" cy="87.5" rx="17" ry="29.5" fill="#D9D9D9"/>
<ellipse cx="2821" cy="87.5" rx="17" ry="29.5" fill="#D9D9D9"/>
<ellipse cx="2846" cy="87.5" rx="17" ry="29.5" fill="#D9D9D9"/>
<ellipse cx="2871" cy="87.5" rx="17" ry="29.5" fill="#D9D9D9"/>
<ellipse cx="2896" cy="87.5" rx="17" ry="29.5" fill="#D9D9D9"/>
<ellipse cx="2921" cy="87.5" rx="17" ry="29.5" fill="#D9D9D9"/>
<ellipse cx="2946" cy="87.5" rx="17" ry="29.5" fill="#D9D9D9"/>
<ellipse cx="2971" cy="87.5" rx="17" ry="29.5" fill="#D9D9D9"/>
<ellipse cx="2996" cy="87.5" rx="17" ry="29.5" fill="#D9D9D9"/>
<ellipse cx="3021" cy="87.5" rx="17" ry="29.5" fill="#D9D9D9"/>
<ellipse cx="3045" cy="87.5" rx="17" ry="29.5" fill="#D9D9D9"/>
<ellipse cx="3069" cy="87.5" rx="17" ry="29.5" fill="#D9D9D9"/>
<ellipse cx="3094" cy="87.5" rx="17" ry="29.5" fill="#D9D9D9"/>
<ellipse cx="3120" cy="87.5" rx="17" ry="29.5" fill="#D9D9D9"/>
<ellipse cx="3145" cy="87.5" rx="17" ry="29.5" fill="#D9D9D9"/>
<ellipse cx="3170" cy="87.5" rx="17" ry="29.5" fill="#D9D9D9"/>
<rect x="2159" y="49" width="1005" height="14" fill="#D9D9D9"/>
<rect x="2153" width="1034" height="86" fill="#D9D9D9"/>
</svg>
